# xmcd CD database file
#
# Track frame offsets:
#	150
#	24062
#	41770
#	63545
#	78057
#	89660
#	111642
#	134687
#	151310
#
# Disc length: 2454 seconds
#
# Revision: 4
# Processed by: cddbd v1.5.2PL0 Copyright (c) Steve Scherf et al.
# Submitted via: CDex 1.51
#
DISCID=74099409
DTITLE=Black Cat Bones - Barbed Wire Sandwich
DYEAR=1969
DGENRE=Blues Rock
TTITLE0=Chauffeur
TTITLE1=Death Valley Blues
TTITLE2=Feelin' Good
TTITLE3=Please Tell Me Baby
TTITLE4=Coming Back
TTITLE5=Save My Love
TTITLE6=Four Women
TTITLE7=Sylvester's Blues
TTITLE8=Good Lookin' Woman
EXTD=YEAR: 1969
EXTT0=
EXTT1=
EXTT2=
EXTT3=
EXTT4=
EXTT5=
EXTT6=
EXTT7=
EXTT8=
PLAYORDER=
